<svg width="32" height="26" viewBox="0 0 32 26" fill="none" xmlns="http://www.w3.org/2000/svg">
<path d="M28.7107 6.48105C28.731 6.76519 28.7311 7.0494 28.7311 7.33354C28.7311 16.0003 22.1321 25.9865 10.0711 25.9865C6.35534 25.9865 2.90357 24.9107 0 23.0435C0.52794 23.1043 1.0355 23.1246 1.58376 23.1246C4.64971 23.1246 7.47209 22.0895 9.72591 20.3237C6.84265 20.2628 4.42639 18.3751 3.59389 15.7771C4.00002 15.838 4.40608 15.8786 4.83252 15.8786C5.42133 15.8786 6.01021 15.7973 6.5584 15.6553C3.55333 15.0464 1.29944 12.4078 1.29944 9.22116V9.14C2.17251 9.62713 3.18782 9.93158 4.26389 9.97213C2.49738 8.79488 1.34007 6.7855 1.34007 4.51221C1.34007 3.29441 1.66488 2.17808 2.23345 1.20381C5.4619 5.18203 10.3147 7.78 15.7563 8.06421C15.6548 7.57708 15.5939 7.0697 15.5939 6.56227C15.5939 2.94935 18.5178 0.00631714 22.1523 0.00631714C24.0406 0.00631714 25.7462 0.797899 26.9442 2.07661C28.4264 1.79247 29.8477 1.24442 31.1066 0.493449C30.6192 2.01576 29.5837 3.29448 28.2234 4.1063C29.5432 3.96429 30.8224 3.59886 32 3.09149C31.1067 4.39044 29.9899 5.54733 28.7107 6.48105Z" fill="black"/>
</svg>
