<svg viewBox="0 0 35 35" xmlns="http://www.w3.org/2000/svg">
<path d="M11.6016 27.4844C11.6016 27.3438 11.4609 27.2031 11.25 27.2031C11.0391 27.2031 10.8984 27.3438 10.8984 27.4844C10.8984 27.625 11.0391 27.7656 11.25 27.6953C11.4609 27.6953 11.6016 27.625 11.6016 27.4844ZM9.42188 27.1328C9.42188 27.2734 9.5625 27.4844 9.77344 27.4844C9.91406 27.5547 10.125 27.4844 10.1953 27.3438C10.1953 27.2031 10.125 27.0625 9.91406 26.9922C9.70312 26.9219 9.49219 26.9922 9.42188 27.1328ZM12.5859 27.0625C12.375 27.0625 12.2344 27.2031 12.2344 27.4141C12.2344 27.5547 12.4453 27.625 12.6562 27.5547C12.8672 27.4844 13.0078 27.4141 12.9375 27.2734C12.9375 27.1328 12.7266 26.9922 12.5859 27.0625ZM17.1562 0.0625C7.45312 0.0625 0 7.51562 0 17.2188C0 25.0234 4.85156 31.7031 11.8828 34.0938C12.7969 34.2344 13.0781 33.6719 13.0781 33.25C13.0781 32.7578 13.0781 30.3672 13.0781 28.8906C13.0781 28.8906 8.15625 29.9453 7.10156 26.7812C7.10156 26.7812 6.32812 24.7422 5.20312 24.25C5.20312 24.25 3.58594 23.125 5.27344 23.125C5.27344 23.125 7.03125 23.2656 8.01562 24.9531C9.5625 27.6953 12.0938 26.9219 13.1484 26.4297C13.2891 25.3047 13.7109 24.5312 14.2734 24.0391C10.3359 23.6172 6.32812 23.0547 6.32812 16.3047C6.32812 14.3359 6.89062 13.4219 8.01562 12.1562C7.80469 11.6641 7.24219 9.83594 8.22656 7.375C9.63281 6.95312 13.0781 9.27344 13.0781 9.27344C14.4844 8.85156 15.9609 8.71094 17.4375 8.71094C18.9844 8.71094 20.4609 8.85156 21.8672 9.27344C21.8672 9.27344 25.2422 6.88281 26.7188 7.375C27.7031 9.83594 27.0703 11.6641 26.9297 12.1562C28.0547 13.4219 28.7578 14.3359 28.7578 16.3047C28.7578 23.0547 24.6094 23.6172 20.6719 24.0391C21.3047 24.6016 21.8672 25.6562 21.8672 27.3438C21.8672 29.6641 21.7969 32.6172 21.7969 33.1797C21.7969 33.6719 22.1484 34.2344 23.0625 34.0234C30.0938 31.7031 34.875 25.0234 34.875 17.2188C34.875 7.51562 26.9297 0.0625 17.1562 0.0625ZM6.82031 24.3203C6.67969 24.3906 6.75 24.6016 6.82031 24.7422C6.96094 24.8125 7.10156 24.8828 7.24219 24.8125C7.3125 24.7422 7.3125 24.5312 7.17188 24.3906C7.03125 24.3203 6.89062 24.25 6.82031 24.3203ZM6.04688 23.7578C5.97656 23.8984 6.04688 23.9688 6.1875 24.0391C6.32812 24.1094 6.46875 24.1094 6.53906 23.9688C6.53906 23.8984 6.46875 23.8281 6.32812 23.7578C6.1875 23.6875 6.11719 23.6875 6.04688 23.7578ZM8.29688 26.2891C8.22656 26.3594 8.22656 26.5703 8.4375 26.7109C8.57812 26.8516 8.78906 26.9219 8.85938 26.7812C8.92969 26.7109 8.92969 26.5 8.78906 26.3594C8.64844 26.2188 8.4375 26.1484 8.29688 26.2891ZM7.52344 25.2344C7.38281 25.3047 7.38281 25.5156 7.52344 25.6562C7.66406 25.7969 7.80469 25.8672 7.94531 25.7969C8.01562 25.7266 8.01562 25.5156 7.94531 25.375C7.80469 25.2344 7.66406 25.1641 7.52344 25.2344Z" />
</svg>
