<svg viewBox="0 0 36 31"  xmlns="http://www.w3.org/2000/svg">
<path d="M32.2734 8.1875C33.6797 7.13281 34.9453 5.86719 35.9297 4.39062C34.6641 4.95312 33.1875 5.375 31.7109 5.51562C33.2578 4.60156 34.3828 3.19531 34.9453 1.4375C33.5391 2.28125 31.9219 2.91406 30.3047 3.26562C28.8984 1.78906 27 0.945312 24.8906 0.945312C20.8125 0.945312 17.5078 4.25 17.5078 8.32812C17.5078 8.89062 17.5781 9.45312 17.7188 10.0156C11.6016 9.66406 6.11719 6.71094 2.46094 2.28125C1.82812 3.33594 1.47656 4.60156 1.47656 6.00781C1.47656 8.53906 2.74219 10.7891 4.78125 12.125C3.58594 12.0547 2.39062 11.7734 1.40625 11.2109V11.2812C1.40625 14.8672 3.9375 17.8203 7.3125 18.5234C6.75 18.6641 6.04688 18.8047 5.41406 18.8047C4.92188 18.8047 4.5 18.7344 4.00781 18.6641C4.92188 21.6172 7.66406 23.7266 10.8984 23.7969C8.36719 25.7656 5.20312 26.9609 1.75781 26.9609C1.125 26.9609 0.5625 26.8906 0 26.8203C3.23438 28.9297 7.10156 30.125 11.3203 30.125C24.8906 30.125 32.2734 18.9453 32.2734 9.17188C32.2734 8.82031 32.2734 8.53906 32.2734 8.1875Z" />
</svg>
