<svg width="32" height="32" viewBox="0 0 32 32" xmlns="http://www.w3.org/2000/svg">
<path d="M10.7032 25.5188C10.7032 25.6478 10.5548 25.751 10.3677 25.751C10.1548 25.7704 10.0065 25.6671 10.0065 25.5188C10.0065 25.3897 10.1548 25.2865 10.3419 25.2865C10.5355 25.2671 10.7032 25.3704 10.7032 25.5188ZM8.69677 25.2284C8.65161 25.3575 8.78065 25.5059 8.97419 25.5446C9.14194 25.6091 9.33548 25.5446 9.37419 25.4155C9.4129 25.2865 9.29032 25.1381 9.09677 25.08C8.92903 25.0349 8.74194 25.0994 8.69677 25.2284ZM11.5484 25.1188C11.3613 25.1639 11.2323 25.2865 11.2516 25.4349C11.271 25.5639 11.4387 25.6478 11.6323 25.6026C11.8194 25.5575 11.9484 25.4349 11.929 25.3059C11.9097 25.1833 11.7355 25.0994 11.5484 25.1188ZM15.7935 0.396179C6.84516 0.396179 0 7.18973 0 16.1381C0 23.293 4.50323 29.4155 10.9355 31.5704C11.7613 31.7188 12.0516 31.2091 12.0516 30.7897C12.0516 30.3897 12.0323 28.1833 12.0323 26.8284C12.0323 26.8284 7.51613 27.7962 6.56774 24.9059C6.56774 24.9059 5.83226 23.0284 4.77419 22.5446C4.77419 22.5446 3.29677 21.5317 4.87742 21.551C4.87742 21.551 6.48387 21.68 7.36774 23.2155C8.78064 25.7059 11.1484 24.9897 12.071 24.5639C12.2194 23.5317 12.6387 22.8155 13.1032 22.3897C9.49677 21.9897 5.85806 21.4671 5.85806 15.2607C5.85806 13.4865 6.34839 12.5962 7.38065 11.4607C7.2129 11.0413 6.66452 9.31231 7.54839 7.08005C8.89677 6.6607 12 8.82199 12 8.82199C13.2903 8.4607 14.6774 8.2736 16.0516 8.2736C17.4258 8.2736 18.8129 8.4607 20.1032 8.82199C20.1032 8.82199 23.2065 6.65424 24.5548 7.08005C25.4387 9.31876 24.8903 11.0413 24.7226 11.4607C25.7548 12.6026 26.3871 13.493 26.3871 15.2607C26.3871 21.4865 22.5871 21.9833 18.9806 22.3897C19.5742 22.8994 20.0774 23.8671 20.0774 25.3833C20.0774 27.5575 20.0581 30.2478 20.0581 30.7768C20.0581 31.1962 20.3548 31.7059 21.1742 31.5575C27.6258 29.4155 32 23.293 32 16.1381C32 7.18973 24.7419 0.396179 15.7935 0.396179ZM6.27097 22.6478C6.1871 22.7123 6.20645 22.8607 6.31613 22.9833C6.41935 23.0865 6.56774 23.1317 6.65161 23.0478C6.73548 22.9833 6.71613 22.8349 6.60645 22.7123C6.50323 22.6091 6.35484 22.5639 6.27097 22.6478ZM5.57419 22.1252C5.52903 22.2091 5.59355 22.3123 5.72258 22.3768C5.82581 22.4413 5.95484 22.422 6 22.3317C6.04516 22.2478 5.98064 22.1446 5.85161 22.08C5.72258 22.0413 5.61935 22.0607 5.57419 22.1252ZM7.66452 24.422C7.56129 24.5059 7.6 24.6994 7.74839 24.822C7.89677 24.9704 8.08387 24.9897 8.16774 24.8865C8.25161 24.8026 8.2129 24.6091 8.08387 24.4865C7.94194 24.3381 7.74839 24.3188 7.66452 24.422ZM6.92903 23.4736C6.82581 23.5381 6.82581 23.7059 6.92903 23.8542C7.03226 24.0026 7.20645 24.0671 7.29032 24.0026C7.39355 23.9188 7.39355 23.751 7.29032 23.6026C7.2 23.4542 7.03226 23.3897 6.92903 23.4736Z" />
</svg>
