<svg width="32" height="32" viewBox="0 0 32 32" xmlns="http://www.w3.org/2000/svg">
<path d="M7.16269 31.9929H0.528453V10.6333H7.16269V31.9929ZM3.842 7.71971C1.72104 7.71971 0 5.96295 0 3.842C0 1.72104 1.72104 0 3.842 0C5.96295 0 7.684 1.72104 7.684 3.842C7.684 5.96295 5.96295 7.71971 3.842 7.71971ZM31.9929 31.9929H25.3729V21.5952C25.3729 19.1172 25.3229 15.9393 21.9237 15.9393C18.4744 15.9393 17.946 18.6316 17.946 21.4166V31.9929H11.3189V10.6333H17.6818V13.547H17.7746C18.6601 11.8688 20.8239 10.0977 24.0518 10.0977C30.7646 10.0977 32 14.5182 32 20.2598V31.9929H31.9929Z" />
</svg>
